<svg width="30" height="30" viewBox="0 0 30 30" fill="none" xmlns="http://www.w3.org/2000/svg">
<path fill-rule="evenodd" clip-rule="evenodd" d="M5.72874 5.44879L9.13353 3.16906C9.4702 2.94365 9.90961 2.94365 10.2463 3.16906L13.6511 5.44879C13.9283 5.63442 14.0947 5.94609 14.0947 6.27973V9.38004C14.0947 9.73823 13.9031 10.0691 13.5925 10.2474L10.1877 12.2014C9.8794 12.3783 9.5004 12.3783 9.19214 12.2014L5.78735 10.2474C5.47669 10.0691 5.28511 9.73823 5.28511 9.38004V6.27973C5.28511 5.94609 5.45151 5.63442 5.72874 5.44879ZM20.5857 3.16906L17.1809 5.44879C16.9036 5.63442 16.7372 5.94609 16.7372 6.27973V9.38004C16.7372 9.73823 16.9288 10.0691 17.2395 10.2474L20.6443 12.2014C20.9525 12.3783 21.3315 12.3783 21.6398 12.2014L25.0446 10.2474C25.3552 10.0691 25.5468 9.73823 25.5468 9.38004V6.27973C25.5468 5.94609 25.3804 5.63442 25.1032 5.44879L21.6984 3.16906C21.3617 2.94365 20.9223 2.94365 20.5857 3.16906ZM15.3005 11.9786L11.8958 14.2584C11.6185 14.444 11.4521 14.7557 11.4521 15.0893V18.1896C11.4521 18.5478 11.6437 18.8786 11.9544 19.0569L15.3592 21.011C15.6674 21.1879 16.0464 21.1879 16.3547 21.011L19.7595 19.0569C20.0701 18.8786 20.2617 18.5478 20.2617 18.1896V15.0893C20.2617 14.7557 20.0953 14.444 19.8181 14.2584L16.4133 11.9786C16.0766 11.7532 15.6372 11.7532 15.3005 11.9786ZM3.84842 11.9786L0.443633 14.2584C0.166397 14.444 0 14.7557 0 15.0893V18.1896C0 18.5478 0.191576 18.8786 0.502237 19.0569L3.90703 21.011C4.21529 21.1879 4.59429 21.1879 4.90255 21.011L8.30734 19.0569C8.618 18.8786 8.80958 18.5478 8.80958 18.1896V15.0893C8.80958 14.7557 8.64318 14.444 8.36595 14.2584L4.96116 11.9786C4.62449 11.7532 4.18509 11.7532 3.84842 11.9786ZM5.72874 23.0679L9.13353 20.7882C9.4702 20.5628 9.90961 20.5628 10.2463 20.7882L13.6511 23.0679C13.9283 23.2536 14.0947 23.5652 14.0947 23.8989V26.9992C14.0947 27.3574 13.9031 27.6882 13.5925 27.8665L10.1877 29.8205C9.8794 29.9975 9.5004 29.9975 9.19214 29.8205L5.78735 27.8665C5.47669 27.6882 5.28511 27.3574 5.28511 26.9992V23.8989C5.28511 23.5652 5.45151 23.2536 5.72874 23.0679ZM20.5857 20.7882L17.1809 23.0679C16.9036 23.2536 16.7372 23.5652 16.7372 23.8989V26.9992C16.7372 27.3574 16.9288 27.6882 17.2395 27.8665L20.6443 29.8205C20.9525 29.9975 21.3315 29.9975 21.6398 29.8205L25.0446 27.8665C25.3552 27.6882 25.5468 27.3574 25.5468 26.9992V23.8989C25.5468 23.5652 25.3804 23.2536 25.1032 23.0679L21.6984 20.7882C21.3617 20.5628 20.9223 20.5628 20.5857 20.7882ZM23.3479 14.2584L26.7527 11.9786C27.0893 11.7532 27.5287 11.7532 27.8654 11.9786L31.2702 14.2584C31.5474 14.444 31.7138 14.7557 31.7138 15.0893V18.1896C31.7138 18.5478 31.5223 18.8786 31.2116 19.0569L27.8068 21.011C27.4985 21.1879 27.1195 21.1879 26.8113 21.011L23.4065 19.0569C23.0958 18.8786 22.9042 18.5478 22.9042 18.1896V15.0893C22.9042 14.7557 23.0706 14.444 23.3479 14.2584Z" fill="url(#paint0_linear_1202_381)"/>
<defs>
<linearGradient id="paint0_linear_1202_381" x1="24.2281" y1="2.82326" x2="-8.7597" y2="34.0983" gradientUnits="userSpaceOnUse">
<stop stop-color="#5E2FF4"/>
<stop offset="0.174673" stop-color="#8CA7FF"/>
<stop offset="0.395416" stop-color="#E4DAFF"/>
<stop offset="0.844385" stop-color="#C3B1FE"/>
<stop offset="1" stop-color="#5E2FF4"/>
</linearGradient>
</defs>
</svg>
